<svg width="640" height="160" viewBox="0 0 640 160" fill="none" xmlns="http://www.w3.org/2000/svg">
  <defs>
    <linearGradient id="coreasia-light-mark-gradient" x1="10.875" y1="9" x2="85.5" y2="86.25" gradientUnits="userSpaceOnUse">
      <stop stop-color="#FFD670"/>
      <stop offset="0.55" stop-color="#FFBE3D"/>
      <stop offset="1" stop-color="#1BC49E"/>
    </linearGradient>
    <radialGradient id="coreasia-light-mark-bg" cx="0" cy="0" r="1" gradientUnits="userSpaceOnUse" gradientTransform="translate(17.25 14.625) rotate(40.8) scale(105.891)">
      <stop stop-color="#1A2445"/>
      <stop offset="1" stop-color="#050814"/>
    </radialGradient>
    <linearGradient id="coreasia-light-text-gradient" x1="371" y1="43" x2="502" y2="104" gradientUnits="userSpaceOnUse">
      <stop stop-color="#D99100"/>
      <stop offset="0.62" stop-color="#FFB020"/>
      <stop offset="1" stop-color="#139E82"/>
    </linearGradient>
  </defs>
  <g transform="translate(28 32)">
    <rect width="96" height="96" rx="21.75" fill="url(#coreasia-light-mark-bg)"/>
    <path d="M72.6562 28.2C66.6562 22.6312 58.275 19.125 48.525 19.125C30.5062 19.125 18.6937 31.5 18.6937 48C18.6937 64.4812 30.5062 76.875 48.525 76.875C58.4437 76.875 66.8438 73.3875 72.7875 67.7812L63.6938 59.0812C59.85 62.475 54.6937 64.6312 48.6937 64.6312C38.3438 64.6312 31.6687 57.675 31.6687 48C31.6687 38.3062 38.3438 31.3687 48.6937 31.3687C54.6937 31.3687 59.85 33.5062 63.6938 36.9L72.6562 28.2Z" fill="url(#coreasia-light-mark-gradient)"/>
    <circle cx="63.5625" cy="48" r="5.8125" fill="#E8FDF6" fill-opacity="0.92"/>
  </g>
  <text x="148" y="98" font-family="'Plus Jakarta Sans', 'Inter', 'Segoe UI', sans-serif" font-size="58" font-weight="800">
    <tspan fill="#0F172A">Core</tspan><tspan fill="url(#coreasia-light-text-gradient)">Asia</tspan>
  </text>
</svg>
